<svg width="73" height="83" viewBox="0 0 73 83" fill="none" xmlns="http://www.w3.org/2000/svg">
<path d="M13.9074 1.60547C13.9074 1.05318 14.3551 0.605469 14.9074 0.605469H29.8131C30.3654 0.605469 30.8131 1.05318 30.8131 1.60547V17.053C30.8131 17.6053 30.3654 18.053 29.8131 18.053H25.0508C24.4985 18.053 24.0508 17.6053 24.0508 17.053V14.9878C24.0508 14.0892 22.9579 13.6466 22.3327 14.2919L13.5692 23.3362C12.9546 23.9705 13.4041 25.032 14.2874 25.032H16.2885C16.8408 25.032 17.2885 25.4798 17.2885 26.032V31.0111C17.2885 31.5633 16.8408 32.0111 16.2885 32.0111H1.38281C0.830529 32.0111 0.382812 31.5633 0.382812 31.0111V15.5635C0.382812 15.0112 0.830528 14.5635 1.38281 14.5635H6.1451C6.69738 14.5635 7.1451 15.0112 7.1451 15.5635V17.6288C7.1451 18.5273 8.23801 18.9699 8.86327 18.3246L17.6267 9.28036C18.2414 8.64598 17.7918 7.58449 16.9085 7.58449H14.9074C14.3551 7.58449 13.9074 7.13677 13.9074 6.58449V1.60547ZM28.257 27.0071C28.257 24.4565 29.2387 22.0103 30.9863 20.2068C32.7338 18.4032 35.104 17.39 37.5754 17.39C40.0468 17.39 42.417 18.4032 44.1645 20.2068C45.9121 22.0103 46.8938 24.4565 46.8938 27.0071V36.3151C46.8938 36.8674 47.3415 37.3151 47.8938 37.3151H50.8092C52.4592 37.3151 54.0821 37.7688 55.509 38.6237L67.7623 46.0075C69.6088 47.1221 71.0283 48.8577 71.7829 50.9235C72.5375 52.9893 72.5815 55.26 71.9075 57.3554L65.8823 76.0243C65.2627 77.9398 64.0753 79.6058 62.4881 80.7868C60.9008 81.9678 58.994 82.604 57.0373 82.6055H33.0819C31.6536 82.6051 30.2445 82.2664 28.9631 81.6154C27.6817 80.9644 26.5621 80.0186 25.6907 78.8508L11.5728 59.8903C11.3236 59.5557 11.3084 59.1016 11.5345 58.751L14.3368 54.4067C15.0484 53.3057 16.066 52.4526 17.2559 51.9593C18.4459 51.4661 19.7526 51.3558 21.0044 51.643L27.0333 53.0267C27.6596 53.1704 28.257 52.6946 28.257 52.052V27.0071ZM37.5754 24.369C36.8975 24.369 36.2473 24.647 35.7679 25.1417C35.2886 25.6364 35.0193 26.3074 35.0193 27.0071V60.7549C35.0193 61.3975 34.4219 61.8733 33.7956 61.7296L20.1184 58.5914C19.9339 58.5491 19.7427 58.6271 19.6404 58.7865C19.5396 58.9437 19.5466 59.147 19.6582 59.2968L31.0532 74.597C31.2929 74.9169 31.6003 75.1759 31.9519 75.3544C32.3036 75.5328 32.69 75.6258 33.0819 75.6264H57.0373C57.5738 75.6249 58.0963 75.4501 58.5317 75.1266C58.9671 74.803 59.2934 74.347 59.4649 73.8224L65.4901 55.1535C65.6749 54.5778 65.6629 53.9542 65.4562 53.3865C65.2495 52.8188 64.8605 52.3414 64.3541 52.0339L52.0974 44.6536C51.7062 44.4188 51.2618 44.2948 50.8092 44.2941H41.1282C40.5759 44.2941 40.1282 43.8464 40.1282 43.2941V27.0071C40.1282 26.308 39.8593 25.6376 39.3807 25.1429C38.902 24.6483 38.2527 24.37 37.5754 24.369Z" fill="white"/>
</svg>
