<svg width="76" height="77" viewBox="0 0 76 77" fill="none" xmlns="http://www.w3.org/2000/svg">
<path d="M64.3105 49.1475H47.0273V43.7539H64.3105V49.1475ZM75.8326 70.7217H58.5494V65.3282H75.8326V70.7217ZM70.0715 59.9346H52.7884V54.541H70.0715V59.9346Z" fill="white"/>
<path d="M38.3901 49.1476C38.3684 46.8723 37.7196 44.6409 36.5064 42.6693C35.2932 40.6977 33.5568 39.0528 31.4654 37.8939L52.7841 3.30225L47.8008 0.605469L25.9751 36.0035C23.2965 35.4435 20.5107 35.5211 17.8724 36.2292C15.234 36.9372 12.8274 38.2532 10.8725 40.0567C0.0878245 49.7948 0.923177 72.5611 0.963505 73.5265C0.993281 74.2229 1.30986 74.8814 1.84687 75.3641C2.38388 75.8467 3.09962 76.116 3.84403 76.1154H47.026C47.6305 76.1154 48.2198 75.9373 48.7102 75.6064C49.2007 75.2754 49.5675 74.8084 49.7587 74.2714C49.9498 73.7345 49.9557 73.1548 49.7755 72.6145C49.5952 72.0743 49.2379 71.6008 48.7543 71.2612C38.5572 64.0986 38.3901 49.2932 38.3901 49.1476ZM23.7773 41.0491C26.0827 41.0729 28.2897 41.9279 29.939 43.4363C31.5882 44.9447 32.5528 46.9903 32.632 49.1476C32.632 49.2501 32.6377 49.7085 32.6809 50.4124L15.6859 43.336C16.8053 42.4718 18.0972 41.8245 19.4863 41.4319C20.8754 41.0393 22.334 40.9092 23.7773 41.0491ZM33.9167 70.7219C31.6143 68.527 30.1466 65.6842 29.7399 62.6315H23.9789C24.1852 65.5016 25.1428 68.2801 26.7672 70.7219H20.3638C19.1787 67.2221 18.458 63.5992 18.2178 59.9347H12.4568C12.6414 63.5883 13.2844 67.2089 14.3723 70.7219H6.69575C6.78504 65.7706 7.5311 54.8324 11.8893 47.6563L33.5883 56.6905C34.6286 61.7592 36.8515 66.5504 40.0983 70.7219H33.9167Z" fill="white"/>
</svg>
