<svg width="64" height="77" viewBox="0 0 64 77" fill="none" xmlns="http://www.w3.org/2000/svg">
<path fill-rule="evenodd" clip-rule="evenodd" d="M21.9304 20.5106C21.4505 20.5106 20.9903 20.7012 20.6509 21.0406C20.3116 21.3799 20.1209 21.8402 20.1209 22.3201V42.2248C20.1209 44.2236 18.5006 45.8439 16.5019 45.8439C14.5031 45.8439 12.8828 44.2236 12.8828 42.2248V22.3201C12.8828 19.9205 13.836 17.6192 15.5328 15.9224C17.2296 14.2257 19.5309 13.2725 21.9304 13.2725C24.33 13.2725 26.6313 14.2257 28.3281 15.9224C30.0248 17.6192 30.9781 19.9205 30.9781 22.3201V42.2248C30.9781 44.2236 29.3577 45.8439 27.359 45.8439C25.3603 45.8439 23.74 44.2236 23.74 42.2248V22.3201C23.74 21.8402 23.5493 21.3799 23.21 21.0406C22.8706 20.7012 22.4103 20.5106 21.9304 20.5106Z" fill="white"/>
<path fill-rule="evenodd" clip-rule="evenodd" d="M16.5019 36.7959C18.5006 36.7959 20.1209 38.4162 20.1209 40.4149V52.1769C20.1209 61.6704 27.8178 69.3673 37.3114 69.3673H39.1209C48.6144 69.3673 56.3114 61.6704 56.3114 52.1769V40.4149C56.3114 38.4162 57.9317 36.7959 59.9304 36.7959C61.9292 36.7959 63.5495 38.4162 63.5495 40.4149V52.1769C63.5495 65.6679 52.6119 76.6054 39.1209 76.6054H37.3114C23.8204 76.6054 12.8828 65.6679 12.8828 52.1769V40.4149C12.8828 38.4162 14.5031 36.7959 16.5019 36.7959Z" fill="white"/>
<path fill-rule="evenodd" clip-rule="evenodd" d="M32.7859 36.7957C32.306 36.7957 31.8457 36.9864 31.5064 37.3257C31.167 37.6651 30.9764 38.1253 30.9764 38.6052V47.6529C30.9764 49.6516 29.3561 51.2719 27.3573 51.2719C25.3586 51.2719 23.7383 49.6516 23.7383 47.6529V38.6052C23.7383 36.2057 24.6915 33.9044 26.3883 32.2076C28.085 30.5108 30.3863 29.5576 32.7859 29.5576C34.7548 29.5576 36.6576 30.1994 38.2145 31.3671C39.7714 30.1994 41.6741 29.5576 43.643 29.5576C45.612 29.5576 47.5147 30.1994 49.0716 31.3671C50.6285 30.1994 52.5313 29.5576 54.5002 29.5576C56.8998 29.5576 59.2011 30.5108 60.8978 32.2076C62.5946 33.9044 63.5478 36.2057 63.5478 38.6052V47.6529C63.5478 49.6516 61.9275 51.2719 59.9288 51.2719C57.93 51.2719 56.3097 49.6516 56.3097 47.6529V38.6052C56.3097 38.1253 56.1191 37.6651 55.7797 37.3257C55.4404 36.9864 54.9801 36.7957 54.5002 36.7957C54.0203 36.7957 53.56 36.9864 53.2207 37.3257C52.8813 37.6651 52.6907 38.1253 52.6907 38.6052V47.6529C52.6907 49.6516 51.0704 51.2719 49.0716 51.2719C47.0729 51.2719 45.4526 49.6516 45.4526 47.6529V38.6052C45.4526 38.1253 45.2619 37.6651 44.9226 37.3257C44.5832 36.9864 44.123 36.7957 43.643 36.7957C43.1631 36.7957 42.7029 36.9864 42.3635 37.3257C42.0242 37.6651 41.8335 38.1253 41.8335 38.6052V47.6529C41.8335 49.6516 40.2132 51.2719 38.2145 51.2719C36.2157 51.2719 34.5954 49.6516 34.5954 47.6529V38.6052C34.5954 38.1253 34.4048 37.6651 34.0654 37.3257C33.7261 36.9864 33.2658 36.7957 32.7859 36.7957Z" fill="white"/>
<path fill-rule="evenodd" clip-rule="evenodd" d="M12.1498 2.92887C15.1828 1.39954 18.5326 0.603721 21.9293 0.605472C25.3257 0.604057 28.675 1.40004 31.7076 2.92936C34.74 4.45858 37.3711 6.67832 39.3891 9.40992C42.1564 13.1462 43.6481 17.6738 43.6434 22.3234C43.6414 24.3221 42.0195 25.9408 40.0208 25.9388C38.022 25.9368 36.4033 24.3149 36.4053 22.3161C36.4084 19.2197 35.4149 16.2045 33.5716 13.7165L33.5684 13.7122C32.2235 11.8912 30.4698 10.4115 28.4485 9.39218C26.4272 8.37286 24.1948 7.84241 21.931 7.84357H21.9269C19.6629 7.84219 17.4302 8.37252 15.4086 9.39185C13.3871 10.4112 11.6331 11.891 10.2881 13.7122L10.2853 13.716C8.4425 16.2042 7.44944 19.2194 7.45295 22.3157C7.45521 24.3144 5.83675 25.9365 3.838 25.9388C1.83926 25.9411 0.217122 24.3226 0.214858 22.3239C0.20959 17.6745 1.7005 13.1469 4.46712 9.41031C6.48535 6.67823 9.11686 4.45817 12.1498 2.92887ZM21.9293 0.605472C21.93 0.605472 21.9307 0.605472 21.9313 0.605473L21.9291 4.22452L21.9273 0.605472C21.928 0.605472 21.9286 0.605472 21.9293 0.605472Z" fill="white"/>
</svg>
