<svg width="1921" height="631" viewBox="0 0 1921 631" fill="none" xmlns="http://www.w3.org/2000/svg">
<path d="M353.641 621.972C353.641 626.39 357.222 629.972 361.641 629.972C366.059 629.972 369.641 626.39 369.641 621.972C369.641 617.553 366.059 613.972 361.641 613.972C357.222 613.972 353.641 617.553 353.641 621.972ZM360.141 437.972V621.972H363.141V437.972H360.141Z" fill="#292929"/>
<path d="M895.641 564.972C895.641 569.39 899.222 572.972 903.641 572.972C908.059 572.972 911.641 569.39 911.641 564.972C911.641 560.553 908.059 556.972 903.641 556.972C899.222 556.972 895.641 560.553 895.641 564.972ZM537.141 437.972V500.264H540.141V437.972H537.141ZM548.641 511.764H893.641V508.764H548.641V511.764ZM902.141 520.264V564.972H905.141V520.264H902.141ZM893.641 511.764C898.335 511.764 902.141 515.57 902.141 520.264H905.141C905.141 513.913 899.992 508.764 893.641 508.764V511.764ZM537.141 500.264C537.141 506.615 542.289 511.764 548.641 511.764V508.764C543.946 508.764 540.141 504.958 540.141 500.264H537.141Z" fill="#292929"/>
<path d="M1551.64 622.972C1551.64 627.39 1555.22 630.972 1559.64 630.972C1564.06 630.972 1567.64 627.39 1567.64 622.972C1567.64 618.553 1564.06 614.972 1559.64 614.972C1555.22 614.972 1551.64 618.553 1551.64 622.972ZM1549.64 558.019V559.519V558.019ZM1100.64 558.019V556.519V558.019ZM660.641 439.472H1080.64V436.472H660.641V439.472ZM1100.64 559.519L1549.64 559.519V556.519L1100.64 556.519V559.519ZM1558.14 568.019V622.972H1561.14V568.019H1558.14ZM1089.14 447.972V497.995H1092.14V447.972H1089.14ZM1089.14 497.995V548.019H1092.14V497.995H1089.14ZM1549.64 559.519C1554.34 559.519 1558.14 563.324 1558.14 568.019H1561.14C1561.14 561.667 1555.99 556.519 1549.64 556.519V559.519ZM1100.64 556.519C1095.95 556.519 1092.14 552.713 1092.14 548.019H1089.14C1089.14 554.37 1094.29 559.519 1100.64 559.519V556.519ZM1080.64 439.472C1085.34 439.472 1089.14 443.277 1089.14 447.972H1092.14C1092.14 441.62 1086.99 436.472 1080.64 436.472V439.472Z" fill="#292929"/>
<g opacity="0.8">
<rect x="580.641" y="436.972" width="48" height="88" transform="rotate(90 580.641 436.972)" fill="url(#paint0_linear_1607_335)"/>
<rect x="660.641" y="372.972" width="48" height="88" fill="url(#paint1_linear_1607_335)"/>
<rect x="449.641" y="436.972" width="48" height="88" transform="rotate(90 449.641 436.972)" fill="url(#paint2_linear_1607_335)"/>
</g>
<path d="M0.640625 490.972H80.2429C85.7657 490.972 90.2429 486.495 90.2429 480.972V414.972C90.2429 409.449 94.7201 404.972 100.243 404.972H332.641" stroke="#292929"/>
<path d="M474.641 152.972V89.1281C474.641 85.2621 477.775 82.1281 481.641 82.1281H837.641C841.507 82.1281 844.641 78.9941 844.641 75.1281V13.9717" stroke="#292929"/>
<path d="M0.640625 131.972H157.836C161.702 131.972 164.836 135.106 164.836 138.972V327.972C164.836 331.838 167.97 334.972 171.836 334.972H286.641" stroke="#292929"/>
<path d="M308.641 13.9717V185.972C308.641 189.838 311.775 192.972 315.641 192.972H332.641" stroke="#292929"/>
<path d="M592.641 215.972H935.446C939.312 215.972 942.446 212.838 942.446 208.972V142.818C942.446 138.952 945.58 135.818 949.446 135.818H1716.64C1720.51 135.818 1723.64 132.684 1723.64 128.818V14.9717" stroke="#292929"/>
<rect x="332.641" y="448.972" width="48" height="88" transform="rotate(-180 332.641 448.972)" fill="url(#paint3_linear_1607_335)"/>
<rect x="286.641" y="364.972" width="48" height="88" transform="rotate(-180 286.641 364.972)" fill="url(#paint4_linear_1607_335)"/>
<rect x="338.641" y="233.972" width="25" height="88" transform="rotate(-180 338.641 233.972)" fill="url(#paint5_linear_1607_335)"/>
<rect x="448.641" y="164.972" width="48" height="88" transform="rotate(-90 448.641 164.972)" fill="url(#paint6_linear_1607_335)"/>
<rect x="592.641" y="164.972" width="48" height="88" fill="url(#paint7_linear_1607_335)"/>
<path d="M754.141 378.972H1113.64C1119.16 378.972 1123.64 383.449 1123.64 388.972V452.472C1123.64 457.995 1128.12 462.472 1133.64 462.472H1607.14H1811.64C1817.16 462.472 1821.64 457.995 1821.64 452.472V347.972C1821.64 342.449 1826.09 337.972 1831.62 337.972C1852.79 337.972 1901.77 337.972 1920.16 337.972" stroke="#292929"/>
<rect width="48" height="88" transform="matrix(1 -8.74228e-08 -8.74228e-08 -1 754.641 422.972)" fill="url(#paint8_linear_1607_335)"/>
<rect width="139" height="559" transform="matrix(-1 -1.74846e-07 -1.74846e-07 1 1920.64 11.9717)" fill="url(#paint9_linear_1607_335)"/>
<rect x="0.640625" y="0.97168" width="139" height="559" fill="url(#paint10_linear_1607_335)"/>
<rect x="1867.64" y="11.9717" width="39.0001" height="1591" transform="rotate(90 1867.64 11.9717)" fill="url(#paint11_linear_1607_335)"/>
<path d="M551.406 416L564.648 384H572.468L585.709 416H577.745L574.627 408.612H562.489L559.37 416H551.406ZM568.582 391.724L564.024 402.903H573.139L568.582 391.724Z" fill="white"/>
<path d="M533.608 389.709H523.438V384H551.024V389.709H540.421V416H533.608V389.709Z" fill="white"/>
<path d="M488.766 416L502.007 384H509.827L523.068 416H515.104L511.986 408.612H499.848L496.73 416H488.766ZM505.941 391.724L501.383 402.903H510.499L505.941 391.724Z" fill="white"/>
<path d="M457.547 384H471.124C474.514 384 477.137 384.336 478.992 385.007C482.414 386.255 484.701 388.542 485.853 391.868C486.716 394.427 487.148 397.161 487.148 400.072C487.148 402.951 486.732 405.669 485.901 408.228C485.069 410.851 483.694 412.786 481.775 414.033C480.559 414.801 479.216 415.328 477.745 415.616C476.305 415.872 474.099 416 471.124 416H457.547V384ZM464.359 389.709V410.291H471.124C474.099 410.291 476.162 409.635 477.313 408.324C478.017 407.492 478.576 406.325 478.992 404.822C479.44 403.318 479.664 401.719 479.664 400.024C479.664 398.137 479.408 396.41 478.896 394.843C478.384 393.275 477.713 392.108 476.881 391.34C475.666 390.253 473.747 389.709 471.124 389.709H464.359Z" fill="white"/>
<path d="M430.486 384V389.709H410.96V397.001H421.131C423.114 397.001 424.681 397.129 425.832 397.385C427.016 397.641 428.023 398.089 428.855 398.729C431.094 400.424 432.213 402.903 432.213 406.165C432.213 410.291 430.486 413.153 427.032 414.753C425.209 415.584 422.266 416 418.204 416H404.195V410.339H418.204C420.123 410.339 421.595 410.179 422.618 409.859C423.258 409.635 423.754 409.235 424.105 408.66C424.489 408.052 424.681 407.348 424.681 406.549C424.681 405.653 424.473 404.886 424.057 404.246C423.642 403.574 423.098 403.142 422.426 402.951C421.882 402.791 420.475 402.695 418.204 402.663H404.195V384H430.486Z" fill="white"/>
<path d="M370.383 384H383.96C387.35 384 389.973 384.336 391.828 385.007C395.25 386.255 397.537 388.542 398.689 391.868C399.552 394.427 399.984 397.161 399.984 400.072C399.984 402.951 399.568 405.669 398.737 408.228C397.905 410.851 396.53 412.786 394.611 414.033C393.395 414.801 392.052 415.328 390.581 415.616C389.141 415.872 386.935 416 383.96 416H370.383V384ZM377.195 389.709V410.291H383.96C386.935 410.291 388.998 409.635 390.149 408.324C390.853 407.492 391.412 406.325 391.828 404.822C392.276 403.318 392.5 401.719 392.5 400.024C392.5 398.137 392.244 396.41 391.732 394.843C391.22 393.275 390.549 392.108 389.717 391.34C388.502 390.253 386.583 389.709 383.96 389.709H377.195Z" fill="white"/>
<path fill-rule="evenodd" clip-rule="evenodd" d="M620.276 288.969H608.068L605.832 283.843H592.692L595.021 288.969H582.441L584.957 283.843H572.19L563.15 301.829H567.344V350.754H579.459V298.288H577.688L582.161 289.435V298.101H595.115V306.488H582.161V315.621H595.115V324.101H582.161V333.234H595.115V341.621H582.161V350.754H620.276V341.621H607.602V333.234H620.276V324.101H607.602V315.621H620.276V306.488H607.602V298.101H620.276V288.969ZM555.509 306.116L564.548 283.098H551.129L538.734 314.596H547.774L538.734 337.707H565.387V329.227H555.509L564.175 306.116H557.652H555.509ZM565.387 342.18H538.734V350.661H565.387V342.18ZM647.575 320.933V328.481H696.686C692.337 332.209 686.187 335.191 678.235 337.427C671.214 335.439 665.592 332.861 661.367 329.693H648.6C651.085 333.358 654.44 336.496 658.665 339.105C659.534 339.664 660.404 340.192 661.274 340.689C656.987 341.186 652.421 341.528 647.575 341.714V350.381C654.098 350.319 660.497 349.884 666.772 349.076C670.748 348.517 674.569 347.803 678.235 346.933C681.962 347.865 685.876 348.579 689.977 349.076C696.127 349.884 702.34 350.319 708.615 350.381V341.714C703.893 341.528 699.451 341.186 695.289 340.689C696.531 340.006 697.711 339.291 698.83 338.546C703.054 335.812 706.316 332.457 708.615 328.481V320.933H647.575ZM643.754 294.746H710.385V286.732H680.285L678.794 283.377H663.697L665.095 286.732H632.105V340.223L627.539 350.381H639.281L643.754 340.223V294.746ZM709.267 299.126H705.633V296.517H695.009V299.126H660.435V296.517H649.812V299.126H645.152V306.675H649.812V318.323H697.152C699.513 318.323 701.501 317.516 703.117 315.9C704.794 314.285 705.633 312.266 705.633 309.843V306.675H709.267V299.126ZM695.009 308.352C695.009 309.035 694.76 309.595 694.263 310.029C693.642 310.526 693.083 310.775 692.586 310.775H660.435V306.675H695.009V308.352ZM534.549 350.381H453.008V340.782H466.334L471.366 316.739H456.735V307.141H473.323L476.305 292.976H454.592V283.377H532.965V292.976H488.793L485.904 307.141H520.198C522.124 307.141 523.77 307.824 525.137 309.191C526.504 310.558 527.187 312.204 527.187 314.13V316.739V340.782H534.549V350.381ZM478.915 340.782H514.607V318.696C514.607 318.199 514.42 317.764 514.048 317.391C513.675 316.957 513.209 316.739 512.65 316.739H483.854L478.915 340.782ZM449.009 329.32H414.528V325.22H438.758C441.181 325.22 443.231 324.412 444.908 322.797C446.648 321.119 447.518 319.069 447.518 316.646V312.732V304.438H434.564H369.89V312.732H401.575V316.926H369.61V318.137V325.22V329.32V337.987H377.904L368.585 350.567H384.241L393.56 337.987H401.575V350.567H414.528V337.987H436.055V340.689C436.055 341.248 435.838 341.745 435.403 342.18C435.03 342.553 434.564 342.739 434.005 342.739H428.041L424.779 350.567H440.249C441.429 350.567 442.548 350.35 443.604 349.915C444.722 349.418 445.654 348.766 446.399 347.958C447.207 347.15 447.828 346.219 448.263 345.162C448.76 344.106 449.009 342.988 449.009 341.808V337.987V334.539V329.32ZM432.514 316.926H414.528V312.732H434.564V314.969C434.564 316.273 433.881 316.926 432.514 316.926ZM401.575 325.22V329.32H382.564V325.22H401.575ZM400.27 293.721H407.446V286.173H387.689L388.901 283.284H375.295L367.188 301.736H380.793L384.335 293.721H388.528L394.026 301.829H405.862L400.27 293.721ZM449.009 286.173H429.159L430.464 283.284H416.765L408.657 301.736H422.356L425.804 293.721H429.998L435.589 301.829H447.331L441.74 293.721H449.009V286.173Z" fill="url(#paint12_linear_1607_335)"/>
<path d="M490.378 225.506H454.406V216.932H490.378V199.412H456.27V190.839H531.382V199.412H503.331V216.932H533.152V225.506H503.331V245.262V247.312C503.331 249.922 502.43 252.127 500.629 253.929C498.889 255.668 496.715 256.538 494.105 256.538H492.055H479.102L483.295 248.337H488.328C488.887 248.337 489.353 248.151 489.725 247.778C490.16 247.343 490.378 246.846 490.378 246.287V225.506Z" fill="white"/>
<path d="M367 257.377L399.151 232.961H367V223.735H401.48V210.316H370.075V201.09H384.427L379.488 190H393L397.939 201.09H417.975L422.914 190H436.427L431.488 201.09H445.839V210.316H416.391V223.735H448.914V232.961H416.391V234.638L411.825 237.993H420.491L449.194 257.377H428.413L406.606 241.907L386.104 257.377H367Z" fill="white"/>
<defs>
<linearGradient id="paint0_linear_1607_335" x1="580.641" y1="480.972" x2="628.641" y2="480.972" gradientUnits="userSpaceOnUse">
<stop stop-color="#0C050E"/>
<stop offset="1" stop-color="#0C050E" stop-opacity="0"/>
</linearGradient>
<linearGradient id="paint1_linear_1607_335" x1="660.641" y1="416.972" x2="708.641" y2="416.972" gradientUnits="userSpaceOnUse">
<stop stop-color="#0C050E"/>
<stop offset="1" stop-color="#0C050E" stop-opacity="0"/>
</linearGradient>
<linearGradient id="paint2_linear_1607_335" x1="449.641" y1="480.972" x2="497.641" y2="480.972" gradientUnits="userSpaceOnUse">
<stop stop-color="#0C050E"/>
<stop offset="1" stop-color="#0C050E" stop-opacity="0"/>
</linearGradient>
<linearGradient id="paint3_linear_1607_335" x1="332.641" y1="492.972" x2="380.641" y2="492.972" gradientUnits="userSpaceOnUse">
<stop stop-color="#0C050E"/>
<stop offset="1" stop-color="#0C050E" stop-opacity="0"/>
</linearGradient>
<linearGradient id="paint4_linear_1607_335" x1="286.641" y1="408.972" x2="334.641" y2="408.972" gradientUnits="userSpaceOnUse">
<stop stop-color="#0C050E"/>
<stop offset="1" stop-color="#0C050E" stop-opacity="0"/>
</linearGradient>
<linearGradient id="paint5_linear_1607_335" x1="338.641" y1="277.972" x2="363.641" y2="277.972" gradientUnits="userSpaceOnUse">
<stop stop-color="#0C050E"/>
<stop offset="1" stop-color="#0C050E" stop-opacity="0"/>
</linearGradient>
<linearGradient id="paint6_linear_1607_335" x1="448.641" y1="208.972" x2="496.641" y2="208.972" gradientUnits="userSpaceOnUse">
<stop stop-color="#0C050E"/>
<stop offset="1" stop-color="#0C050E" stop-opacity="0"/>
</linearGradient>
<linearGradient id="paint7_linear_1607_335" x1="592.641" y1="208.972" x2="640.641" y2="208.972" gradientUnits="userSpaceOnUse">
<stop stop-color="#0C050E"/>
<stop offset="1" stop-color="#0C050E" stop-opacity="0"/>
</linearGradient>
<linearGradient id="paint8_linear_1607_335" x1="0" y1="44" x2="48" y2="44" gradientUnits="userSpaceOnUse">
<stop stop-color="#0C050E"/>
<stop offset="1" stop-color="#0C050E" stop-opacity="0"/>
</linearGradient>
<linearGradient id="paint9_linear_1607_335" x1="0" y1="279.5" x2="139" y2="279.5" gradientUnits="userSpaceOnUse">
<stop stop-color="#0C050E"/>
<stop offset="1" stop-color="#0C050E" stop-opacity="0"/>
</linearGradient>
<linearGradient id="paint10_linear_1607_335" x1="0.640625" y1="280.472" x2="139.641" y2="280.472" gradientUnits="userSpaceOnUse">
<stop stop-color="#0C050E"/>
<stop offset="1" stop-color="#0C050E" stop-opacity="0"/>
</linearGradient>
<linearGradient id="paint11_linear_1607_335" x1="1867.64" y1="807.472" x2="1906.64" y2="807.472" gradientUnits="userSpaceOnUse">
<stop stop-color="#0C050E"/>
<stop offset="1" stop-color="#0C050E" stop-opacity="0"/>
</linearGradient>
<linearGradient id="paint12_linear_1607_335" x1="710.385" y1="317.742" x2="367.187" y2="317.742" gradientUnits="userSpaceOnUse">
<stop stop-color="#4090FF"/>
<stop offset="0.5" stop-color="#7BE7FF"/>
<stop offset="1" stop-color="#7862FF"/>
</linearGradient>
</defs>
</svg>
