<svg width="2143" height="617" viewBox="0 0 2143 617" fill="none" xmlns="http://www.w3.org/2000/svg">
<path d="M553 608C553 612.418 556.582 616 561 616C565.418 616 569 612.418 569 608C569 603.582 565.418 600 561 600C556.582 600 553 603.582 553 608ZM559.5 424V608H562.5V424H559.5Z" fill="#292929"/>
<path d="M1095 551C1095 555.418 1098.58 559 1103 559C1107.42 559 1111 555.418 1111 551C1111 546.582 1107.42 543 1103 543C1098.58 543 1095 546.582 1095 551ZM736.5 424V486.292H739.5V424H736.5ZM748 497.792H1093V494.792H748V497.792ZM1101.5 506.292V551H1104.5V506.292H1101.5ZM1093 497.792C1097.69 497.792 1101.5 501.598 1101.5 506.292H1104.5C1104.5 499.941 1099.35 494.792 1093 494.792V497.792ZM736.5 486.292C736.5 492.644 741.649 497.792 748 497.792V494.792C743.306 494.792 739.5 490.987 739.5 486.292H736.5Z" fill="#292929"/>
<path d="M1751 609C1751 613.418 1754.58 617 1759 617C1763.42 617 1767 613.418 1767 609C1767 604.582 1763.42 601 1759 601C1754.58 601 1751 604.582 1751 609ZM1749 544.047V545.547V544.047ZM1300 544.047V542.547V544.047ZM860 425.5H1280V422.5H860V425.5ZM1300 545.547L1749 545.547V542.547L1300 542.547V545.547ZM1757.5 554.047V609H1760.5V554.047H1757.5ZM1288.5 434V484.024H1291.5V434H1288.5ZM1288.5 484.024V534.047H1291.5V484.024H1288.5ZM1749 545.547C1753.69 545.547 1757.5 549.353 1757.5 554.047H1760.5C1760.5 547.696 1755.35 542.547 1749 542.547V545.547ZM1300 542.547C1295.31 542.547 1291.5 538.741 1291.5 534.047H1288.5C1288.5 540.398 1293.65 545.547 1300 545.547V542.547ZM1280 425.5C1284.7 425.5 1288.5 429.306 1288.5 434H1291.5C1291.5 427.649 1286.35 422.5 1280 422.5V425.5Z" fill="#292929"/>
<path d="M0 477H133.58C139.102 477 143.58 472.523 143.58 467V401C143.58 395.477 148.057 391 153.58 391H532" stroke="#292929"/>
<path d="M674 139V75.1564C674 71.2904 677.134 68.1564 681 68.1564H1037C1040.87 68.1564 1044 65.0224 1044 61.1564V0" stroke="#292929"/>
<path d="M200 118H357.196C361.062 118 364.196 121.134 364.196 125V314C364.196 317.866 367.33 321 371.196 321H486" stroke="#292929"/>
<path d="M508 0V172C508 175.866 511.134 179 515 179H532" stroke="#292929"/>
<path d="M792 202H1134.81C1138.67 202 1141.81 198.866 1141.81 195V128.847C1141.81 124.981 1144.94 121.847 1148.81 121.847H1916C1919.87 121.847 1923 118.713 1923 114.847V1" stroke="#292929"/>
<path d="M953.5 365H1313C1318.52 365 1323 369.477 1323 375V438.5C1323 444.023 1327.48 448.5 1333 448.5H1806.5H2011C2016.52 448.5 2021 444.023 2021 438.5V334C2021 328.477 2025.48 324 2031 324H2143" stroke="#292929"/>
</svg>
