<svg width="310" height="52" viewBox="0 0 310 52" fill="none" xmlns="http://www.w3.org/2000/svg">
<path d="M0.503096 0.447754H22.0868C27.4738 0.447754 31.6479 0.982931 34.5971 2.0532C40.0316 4.03914 43.6706 7.67803 45.5019 12.958C46.8695 17.025 47.5592 21.3775 47.5592 26.0034C47.5592 30.5818 46.8933 34.8985 45.5733 38.9655C44.2533 43.1395 42.0652 46.2077 39.0089 48.1936C37.0706 49.4185 34.9538 50.239 32.6349 50.6671C30.316 51.0952 26.796 51.3212 22.0749 51.3212H0.491211V0.447754H0.503096ZM11.3366 9.52125V42.2358H22.0868C26.8198 42.2358 30.09 41.1893 31.9214 39.1082C33.0392 37.7882 33.943 35.9331 34.6327 33.5428C35.3225 31.1526 35.6673 28.6077 35.6673 25.9202C35.6673 22.9234 35.263 20.1764 34.4425 17.6791C33.6338 15.1937 32.5636 13.3266 31.2436 12.1137C29.3052 10.3893 26.2609 9.52125 22.0868 9.52125H11.3366Z" fill="white"/>
<path d="M96.0678 0.447662V9.52116H65.03V21.1157H81.203C84.3543 21.1157 86.8635 21.3179 88.7186 21.7222C90.5738 22.1265 92.1673 22.84 93.4873 23.8627C97.0429 26.5622 98.8267 30.4984 98.8267 35.6833C98.8267 42.2476 96.0797 46.7903 90.5857 49.3352C87.684 50.6552 83.0105 51.3211 76.5532 51.3211H54.2798V42.3189H76.5532C79.5976 42.3189 81.9402 42.0692 83.5694 41.5578C84.5802 41.2011 85.3889 40.5589 85.9716 39.6194C86.5543 38.68 86.8516 37.5741 86.8516 36.3016C86.8516 34.8746 86.5186 33.6498 85.8646 32.6033C85.1986 31.5568 84.3424 30.8909 83.2721 30.5817C82.404 30.3319 80.1684 30.1773 76.5651 30.1298H54.2798V0.447662H96.0678Z" fill="white"/>
<path d="M144.798 0.447662H166.382C171.769 0.447662 175.943 0.98284 178.892 2.05311C184.327 4.03905 187.965 7.67794 189.797 12.9579C191.164 17.0249 191.854 21.3774 191.854 26.0033C191.854 30.5817 191.188 34.8984 189.868 38.9654C188.548 43.1395 186.36 46.2076 183.304 48.1935C181.366 49.4184 179.249 50.2389 176.93 50.667C174.611 51.0951 171.091 51.3211 166.37 51.3211H144.786V0.447662H144.798ZM155.632 9.52116V42.2357H166.382C171.115 42.2357 174.385 41.1892 176.216 39.1081C177.334 37.7881 178.238 35.933 178.928 33.5427C179.617 31.1525 179.962 28.6076 179.962 25.9201C179.962 22.9233 179.558 20.1763 178.737 17.679C177.929 15.1936 176.858 13.3265 175.538 12.1136C173.6 10.3893 170.556 9.52116 166.382 9.52116H155.632Z" fill="white"/>
<path d="M224.805 28.7362C224.805 26.1438 224.282 24.3838 223.248 23.4681C222.201 22.5524 220.132 22.1005 217.028 22.1005H199.785V14.1687H217.028C220.132 14.1687 222.26 14.2281 223.438 14.3589C224.603 14.4897 225.804 14.7275 227.017 15.0843C232.666 17.2129 235.33 22.3265 235.02 30.4129V51.3069H213.508C209.643 51.3069 206.979 51.188 205.505 50.9621C204.03 50.7361 202.734 50.2605 201.616 49.547C198.619 47.5134 197.121 44.4334 197.121 40.3189C197.121 37.8335 197.716 35.5978 198.917 33.6475C200.118 31.6854 201.699 30.3535 203.685 29.64C205.41 29.0335 208.288 28.7243 212.307 28.7243H224.805V28.7362ZM224.805 36.668H213.056H211.296C210.131 36.668 209.203 36.9773 208.513 37.5837C207.824 38.1902 207.479 39.0345 207.479 40.1048C207.479 41.2702 207.895 42.1145 208.739 42.6259C209.584 43.1372 211.011 43.387 213.044 43.387H224.793V36.668H224.805Z" fill="white"/>
<path d="M247.306 14.1709V0.447662H257.521V14.1709H266.975V22.1028H257.521V35.6C257.521 38.7513 257.807 40.7373 258.366 41.5459C259.234 42.7708 260.756 43.3773 262.944 43.3773H266.987V51.3092H259.59C255.167 51.3092 252.015 50.2389 250.136 48.1103C248.257 45.9816 247.318 42.3903 247.318 37.36V22.1028H240.837V14.1709H247.306Z" fill="white"/>
<path d="M299.545 28.7362C299.545 26.1438 299.021 24.3838 297.987 23.4681C296.94 22.5524 294.871 22.1005 291.767 22.1005H274.524V14.1687H291.767C294.871 14.1687 297 14.2281 298.177 14.3589C299.342 14.4897 300.543 14.7275 301.756 15.0843C307.405 17.2129 310.069 22.3265 309.76 30.4129V51.3069H288.247C284.382 51.3069 281.719 51.188 280.244 50.9621C278.77 50.7361 277.473 50.2605 276.355 49.547C273.359 47.5134 271.86 44.4334 271.86 40.3189C271.86 37.8335 272.455 35.5978 273.656 33.6475C274.857 31.6854 276.439 30.3535 278.425 29.64C280.149 29.0335 283.027 28.7243 287.046 28.7243H299.545V28.7362ZM299.545 36.668H287.795H286.035C284.87 36.668 283.942 36.9773 283.253 37.5837C282.563 38.1902 282.218 39.0345 282.218 40.1048C282.218 41.2702 282.634 42.1145 283.479 42.6259C284.323 43.1372 285.75 43.387 287.784 43.387H299.533V36.668H299.545Z" fill="white"/>
</svg>
