<svg width="448" height="89" viewBox="0 0 448 89" fill="none" xmlns="http://www.w3.org/2000/svg">
<path d="M365.786 59.8234V50.0013H445.212V59.8234C442.221 64.9972 437.976 69.3626 432.479 72.9195C431.024 73.8896 429.488 74.8193 427.871 75.7085C433.288 76.3552 439.068 76.7999 445.212 77.0424V88.3196C437.047 88.2388 428.963 87.6729 420.959 86.622C415.624 85.9753 410.531 85.0456 405.681 83.833C400.911 84.9648 395.939 85.8944 390.766 86.622C382.601 87.6729 374.274 88.2388 365.786 88.3196V77.0424C372.091 76.7999 378.033 76.3552 383.611 75.7085C382.479 75.0618 381.348 74.3747 380.216 73.6471C374.719 70.2518 370.353 66.1694 367.12 61.3998H383.732C389.23 65.5226 396.546 68.8775 405.681 71.4644C416.028 68.5541 424.031 64.6738 429.69 59.8234H365.786ZM447.516 15.927H360.814V75.1022L354.994 88.3196H339.715L345.657 75.1022V5.49859H388.583L386.764 1.13321H406.408L408.348 5.49859H447.516V15.927ZM441.331 21.6263H446.06V31.4484H441.331V35.5712C441.331 38.724 440.24 41.3513 438.057 43.4532C435.955 45.555 433.368 46.606 430.297 46.606H368.696V31.4484H362.633V21.6263H368.696V18.231H382.52V21.6263H427.508V18.231H441.331V21.6263ZM426.537 35.8138C427.184 35.2479 427.508 34.5203 427.508 33.6311V31.4484H382.52V36.7838H424.355C425.002 36.7838 425.729 36.4605 426.537 35.8138Z" fill="white"/>
<path d="M314.381 8.40969H330.266V20.2932H313.775V31.2067H330.266V43.0902H313.775V54.125H330.266V66.0085H313.775V76.922H330.266V88.8055H280.671V76.922H297.526V66.0085H280.671V54.125H297.526V43.0902H280.671V31.2067H297.526V20.2932H280.671V9.01599L274.85 20.5358H277.154V88.8055H261.39V25.1437H255.933L267.696 1.74035H284.308L281.034 8.40969H297.405L294.373 1.74035H311.471L314.381 8.40969ZM257.752 0.770264L245.99 30.7217H248.779H257.267L245.99 60.7943H258.844V71.829H224.163L235.925 41.7564H224.163L240.291 0.770264H257.752ZM224.163 77.6496H258.844V88.6843H224.163V77.6496Z" fill="white"/>
<path d="M218.717 88.3196H112.614V75.8298H129.955L136.503 44.5445H117.465V32.0547H139.049L142.929 13.6231H114.676V1.13321H216.656V13.6231H159.178L155.419 32.0547H200.043C202.549 32.0547 204.692 32.9439 206.47 34.7224C208.249 36.5009 209.138 38.6432 209.138 41.1492V44.5445V75.8298H218.717V88.3196ZM146.325 75.8298H192.768V47.091C192.768 46.4443 192.525 45.8784 192.04 45.3934C191.555 44.8275 190.949 44.5445 190.221 44.5445H152.752L146.325 75.8298Z" fill="white"/>
<path d="M62.5428 60.9155H107.409V67.7061V72.1927V77.1644C107.409 78.7004 107.086 80.1555 106.439 81.5298C105.873 82.9041 105.065 84.1167 104.014 85.1676C103.044 86.2186 101.831 87.0674 100.376 87.7141C99.0019 88.28 97.5467 88.5629 96.0108 88.5629H75.8815L80.1256 78.377H87.8863C88.6139 78.377 89.2202 78.1345 89.7052 77.6495C90.2711 77.0836 90.554 76.4369 90.554 75.7093V72.1927H62.5428V88.5629H45.6876V72.1927H35.2592L23.1331 88.5629H2.76129L14.8874 72.1927H4.09516V60.9155V55.58V46.3642V44.7878H45.6876V39.3311H4.45894V28.5389H88.6139H105.469V39.3311V44.4241C105.469 47.5768 104.337 50.2446 102.074 52.4273C99.8911 54.5291 97.2234 55.58 94.0706 55.58H62.5428V60.9155ZM62.5428 44.7878H85.9461C87.7246 44.7878 88.6139 43.939 88.6139 42.2414V39.3311H62.5428V44.7878ZM45.6876 60.9155V55.58H20.9504V60.9155H45.6876ZM53.327 14.5939H43.9899L51.2656 25.1436H35.8655L28.7111 14.5939H23.2544L18.6464 25.0223H0.942383L11.4921 1.01273H29.1961L27.6197 4.7718H53.327V14.5939ZM81.5807 4.7718H107.409V14.5939H97.9509L105.227 25.1436H89.9477L82.6721 14.5939H77.2154L72.7287 25.0223H54.9034L65.4531 1.01273H83.2784L81.5807 4.7718Z" fill="white"/>
</svg>
