<svg width="2195" height="2545" viewBox="0 0 2195 2545" fill="none" xmlns="http://www.w3.org/2000/svg">
<path opacity="0.1" d="M1339.14 1587.95L1335.65 1589.97V1594.01V1772.39V1784.19L1346.01 1778.53L1845.17 1505.53L1845.24 1505.49L1845.31 1505.45C1997.68 1417.66 2188 1527.64 2188 1703.49V1739.54C2188 1836.34 2137.11 1926.04 2054.01 1975.69C2054 1975.69 2054 1975.7 2053.99 1975.7L1102.62 2532.79V2288.36L1905.57 1828.48L1905.6 1828.46L1905.63 1828.44C1927.69 1815.51 1941.28 1791.82 1941.28 1766.23C1941.28 1710.56 1880.82 1675.86 1832.75 1704C1832.73 1704.01 1832.72 1704.02 1832.7 1704.03L1102.62 2117.13V1628.21C1102.62 1550.18 1144.42 1478.14 1212.18 1439.43L1212.19 1439.42L2124.63 915.92V1133.07L1339.14 1587.95ZM7 915.974L814.448 1383.39C940.656 1456.46 1018.36 1591.21 1018.36 1737.03V2510.5L7.03868 1925.06V1307.29L222.385 1433.95V1780.7V1784.72L225.849 1786.74L778.98 2110.5L789.516 2116.66V2104.46V1712.42C789.516 1660.35 761.586 1612.34 716.338 1586.61C716.338 1586.61 716.338 1586.61 716.337 1586.61L7 1183.05V915.974ZM1851.77 707.557L1862.8 701.281L1851.61 695.299L1069.13 277.116L1065.83 275.352L1062.53 277.116L280.018 695.299L268.824 701.281L279.855 707.557L1062.37 1152.74L1065.83 1154.71L1069.29 1152.74L1851.77 707.557ZM1065.83 8.05583L2124.63 611.112V818.842L1065.83 1435.35L7 818.88V611.15L1065.83 8.05583Z" stroke="url(#paint0_radial_789_2957)" stroke-width="14"/>
<defs>
<radialGradient id="paint0_radial_789_2957" cx="0" cy="0" r="1" gradientUnits="userSpaceOnUse" gradientTransform="translate(1097.5 1272.5) rotate(90) scale(845 728.792)">
<stop stop-color="#6372FF"/>
<stop offset="1" stop-color="#0C050E"/>
</radialGradient>
</defs>
</svg>
