{
  "asset": {
    "version": "2.0",
    "generator": "THREE.GLTFExporter"
  },
  "scenes": [
    {
      "nodes": [
        0
      ]
    }
  ],
  "scene": 0,
  "nodes": [
    {
      "children": [
        8
      ],
      "matrix": [
        0.01,
        0,
        0,
        0,
        0,
        0.01,
        0,
        0,
        0,
        0,
        0.01,
        0,
        0,
        0,
        0,
        1
      ]
    },
    {
      "matrix": [
        0.7071067811865475,
        6.988109193573846e-17,
        -0.7071067811865475,
        0,
        0.7071067811865476,
        -8.73808478995645e-16,
        0.7071067811865476,
        0,
        -6.528160369563539e-16,
        -1.0000000000000002,
        -4.440892098500626e-16,
        0,
        159.2179151401121,
        -40.75750408979596,
        163.63295425675895,
        1
      ],
      "name": "Boolean 2",
      "mesh": 0
    },
    {
      "matrix": [
        0.7071067811865474,
        -1.1547867433291727e-15,
        0.7071067811865477,
        0,
        -0.7071067811865478,
        -2.7897898085813456e-16,
        0.707106781186547,
        0,
        -5.657748724189282e-16,
        -0.9999999999999998,
        -7.771561172376096e-16,
        0,
        -160.66860947169718,
        -40.75750408979592,
        163.7518436298972,
        1
      ],
      "name": "Merged Geometry 2",
      "mesh": 1
    },
    {
      "matrix": [
        0.7071067811865475,
        0,
        -0.7071067811865477,
        0,
        0,
        1,
        0,
        0,
        0.7071067811865477,
        0,
        0.7071067811865475,
        0,
        0,
        188.61884365888818,
        0,
        1
      ],
      "name": "Boolean 4",
      "mesh": 2
    },
    {
      "matrix": [
        5.791517854027149,
        0,
        0,
        0,
        0,
        5.5515769509371236,
        1.6497491964959103,
        0,
        0,
        -1.6497491964959106,
        5.551576950937124,
        0,
        4441.533701027851,
        435.7955837499205,
        14.874598914085993,
        1
      ],
      "name": "Group",
      "children": [
        1,
        2,
        3
      ]
    },
    {
      "matrix": [
        0.5883484054145521,
        0.39223227027636803,
        -0.7071067811865475,
        0,
        -0.554700196225229,
        0.8320502943378437,
        0,
        0,
        0.588348405414552,
        0.392232270276368,
        0.7071067811865476,
        0,
        0,
        0,
        0,
        1
      ],
      "name": "Directional Light",
      "extensions": {
        "KHR_lights_punctual": {
          "light": 0
        }
      }
    },
    {
      "matrix": [
        1,
        0,
        0,
        0,
        0,
        1,
        -6.144924508062232e-17,
        0,
        0,
        6.144924508062232e-17,
        1,
        0,
        1056.6144851429774,
        438.980298257705,
        23908.249320076433,
        1
      ],
      "name": "Personal Camera",
      "camera": 0
    },
    {
      "matrix": [
        1,
        0,
        0,
        0,
        0,
        1,
        0,
        0,
        0,
        0,
        1,
        0,
        0,
        1,
        0,
        1
      ],
      "name": "Default Ambient Light"
    },
    {
      "name": "Scene 1",
      "children": [
        4,
        5,
        6,
        7
      ]
    }
  ],
  "bufferViews": [
    {
      "buffer": 0,
      "byteOffset": 0,
      "byteLength": 33552,
      "target": 34962,
      "byteStride": 12
    },
    {
      "buffer": 0,
      "byteOffset": 33552,
      "byteLength": 33552,
      "target": 34962,
      "byteStride": 12
    },
    {
      "buffer": 0,
      "byteOffset": 67104,
      "byteLength": 18048,
      "target": 34963
    },
    {
      "buffer": 0,
      "byteOffset": 85152,
      "byteLength": 187056,
      "target": 34962,
      "byteStride": 12
    },
    {
      "buffer": 0,
      "byteOffset": 272208,
      "byteLength": 187056,
      "target": 34962,
      "byteStride": 12
    },
    {
      "buffer": 0,
      "byteOffset": 459264,
      "byteLength": 69456,
      "target": 34963
    },
    {
      "buffer": 0,
      "byteOffset": 528720,
      "byteLength": 632304,
      "target": 34962,
      "byteStride": 12
    },
    {
      "buffer": 0,
      "byteOffset": 1161024,
      "byteLength": 632304,
      "target": 34962,
      "byteStride": 12
    }
  ],
  "buffers": [
    {
      "byteLength": 1793328,
      "uri": "data:application/octet-stream;base64,"
    }
  ],
  "accessors": [
    {
      "bufferView": 0,
      "componentType": 5126,
      "count": 2796,
      "max": [
        200,
        26.10986328125,
        182.5
      ],
      "min": [
        -200,
        -26.10986328125,
        -182.5
      ],
      "type": "VEC3"
    },
    {
      "bufferView": 1,
      "componentType": 5126,
      "count": 2796,
      "max": [
        1,
        1,
        1
      ],
      "min": [
        -1,
        -1,
        -1
      ],
      "type": "VEC3"
    },
    {
      "bufferView": 2,
      "componentType": 5125,
      "count": 4512,
      "max": [
        2795
      ],
      "min": [
        0
      ],
      "type": "SCALAR"
    },
    {
      "bufferView": 3,
      "componentType": 5126,
      "count": 15588,
      "max": [
        200,
        25,
        182.5
      ],
      "min": [
        -200,
        -25,
        -182.5
      ],
      "type": "VEC3"
    },
    {
      "bufferView": 4,
      "componentType": 5126,
      "count": 15588,
      "max": [
        1,
        1,
        1
      ],
      "min": [
        -1,
        -1,
        -1
      ],
      "type": "VEC3"
    },
    {
      "bufferView": 5,
      "componentType": 5125,
      "count": 17364,
      "max": [
        15587
      ],
      "min": [
        0
      ],
      "type": "SCALAR"
    },
    {
      "bufferView": 6,
      "componentType": 5126,
      "count": 52692,
      "max": [
        254.39990234375,
        34.6386604309082,
        254.39990234375
      ],
      "min": [
        -254.39990234375,
        -34.6386604309082,
        -254.39990234375
      ],
      "type": "VEC3"
    },
    {
      "bufferView": 7,
      "componentType": 5126,
      "count": 52692,
      "max": [
        null,
        null,
        null
      ],
      "min": [
        null,
        null,
        null
      ],
      "type": "VEC3"
    }
  ],
  "meshes": [
    {
      "primitives": [
        {
          "mode": 4,
          "attributes": {
            "POSITION": 0,
            "NORMAL": 1
          },
          "extras": {
            "type": "SubdivGeometry",
            "parameters": {
              "width": 400,
              "height": 52.2197265625,
              "depth": 365
            }
          },
          "indices": 2
        }
      ]
    },
    {
      "primitives": [
        {
          "mode": 4,
          "attributes": {
            "POSITION": 3,
            "NORMAL": 4
          },
          "extras": {
            "type": "SubdivGeometry",
            "parameters": {
              "width": 400,
              "height": 50,
              "depth": 365
            }
          },
          "indices": 5
        }
      ]
    },
    {
      "primitives": [
        {
          "mode": 4,
          "attributes": {
            "POSITION": 6,
            "NORMAL": 7
          },
          "extras": {
            "parameters": {
              "width": 508.7998046875,
              "height": 69.2773208618164,
              "depth": 508.7998046875
            }
          }
        }
      ]
    }
  ],
  "extensions": {
    "KHR_lights_punctual": {
      "lights": [
        {
          "name": "Directional Light",
          "color": [
            1,
            1,
            1
          ],
          "intensity": 0.7,
          "type": "directional"
        }
      ]
    }
  },
  "cameras": [
    {
      "type": "perspective",
      "perspective": {
        "aspectRatio": 2.210431654676259,
        "yfov": 0.7853981633974483,
        "zfar": 100000,
        "znear": 70
      },
      "name": "Camera"
    }
  ],
  "extensionsUsed": [
    "KHR_lights_punctual"
  ]
}