<svg width="40" height="30" viewBox="0 0 40 30" fill="none" xmlns="http://www.w3.org/2000/svg">
<path opacity="0.6" d="M26.1611 20.2261L25.8695 20.0168L25.5779 20.2261L22.3055 22.5752L23.5131 18.7553L23.6193 18.4193L23.3386 18.2063L20.0283 15.6942H24.111H24.4688L24.5843 15.3555L25.8695 11.5831L27.1547 15.3555L27.2701 15.6942H27.628H31.7107L28.4004 18.2063L28.1197 18.4193L28.2259 18.7553L29.4335 22.5752L26.1611 20.2261ZM19.86 4.49742L20.0045 4.63373H20.2032H35.8344C36.7844 4.63373 37.5811 4.94826 38.2522 5.58135C38.9223 6.2136 39.2434 6.95122 39.2422 7.81992V7.82057V26.2547C39.2422 27.1254 38.9208 27.8639 38.2519 28.4961C37.5825 29.1286 36.7863 29.4427 35.835 29.4416H35.8344H4.57188C3.62165 29.4416 2.82564 29.1275 2.15608 28.4958C1.48749 27.865 1.16526 27.1265 1.16406 26.2544V4.13373C1.16406 3.26341 1.48589 2.52574 2.15577 1.89481C2.82697 1.26264 3.62334 0.948047 4.57218 0.946899H16.0967L19.86 4.49742ZM4.07188 26.2547V26.7547H4.57188H35.8344H36.3344V26.2547V7.82057V7.32057H35.8344H18.7898L15.0265 3.77005L14.882 3.63373H14.6834H4.57188H4.07188V4.13373V26.2547Z" fill="#A798FF" stroke="#A798FF"/>
</svg>
