<svg width="34" height="32" viewBox="0 0 34 32" fill="none" xmlns="http://www.w3.org/2000/svg">
<g opacity="0.6">
<path d="M23.9762 26.4827C25.0161 26.4827 26.0134 26.0929 26.7488 25.3992C27.4841 24.7054 27.8972 23.7645 27.8972 22.7834C27.8972 21.8023 27.4841 20.8613 26.7488 20.1676C26.0134 19.4738 25.0161 19.0841 23.9762 19.0841C22.9363 19.0841 21.939 19.4738 21.2036 20.1676C20.4683 20.8613 20.0552 21.8023 20.0552 22.7834C20.0552 23.7645 20.4683 24.7054 21.2036 25.3992C21.939 26.0929 22.9363 26.4827 23.9762 26.4827ZM13.7816 5.76668L16.9184 2.80725L13.7816 5.76668ZM9.86056 13.1652C10.9005 13.1652 11.8978 12.7755 12.6331 12.0817C13.3685 11.388 13.7816 10.4471 13.7816 9.46596C13.7816 8.48485 13.3685 7.54392 12.6331 6.85017C11.8978 6.15642 10.9005 5.76668 9.86056 5.76668C8.82064 5.76668 7.82332 6.15642 7.08798 6.85017C6.35265 7.54392 5.93954 8.48485 5.93954 9.46596C5.93954 10.4471 6.35265 11.388 7.08798 12.0817C7.82332 12.7755 8.82064 13.1652 9.86056 13.1652ZM10.6448 22.0435L23.192 10.2058L10.6448 22.0435ZM6.72375 29.4421C7.76366 29.4421 8.76099 29.0523 9.49632 28.3586C10.2317 27.6648 10.6448 26.7239 10.6448 25.7428C10.6448 24.7617 10.2317 23.8208 9.49632 23.127C8.76099 22.4333 7.76366 22.0435 6.72375 22.0435C5.68383 22.0435 4.68651 22.4333 3.95117 23.127C3.21584 23.8208 2.80273 24.7617 2.80273 25.7428C2.80273 26.7239 3.21584 27.6648 3.95117 28.3586C4.68651 29.0523 5.68383 29.4421 6.72375 29.4421ZM27.113 10.2058C28.1529 10.2058 29.1503 9.81607 29.8856 9.12232C30.6209 8.42857 31.034 7.48764 31.034 6.50653C31.034 5.52542 30.6209 4.5845 29.8856 3.89075C29.1503 3.197 28.1529 2.80725 27.113 2.80725C26.0731 2.80725 25.0758 3.197 24.3404 3.89075C23.6051 4.5845 23.192 5.52542 23.192 6.50653C23.192 7.48764 23.6051 8.42857 24.3404 9.12232C25.0758 9.81607 26.0731 10.2058 27.113 10.2058ZM16.9184 29.4421L20.0552 26.4827L16.9184 29.4421Z" fill="#A798FF"/>
<path d="M13.7816 5.76668L16.9184 2.80725M10.6448 22.0435L23.192 10.2058M16.9184 29.4421L20.0552 26.4827M23.9762 26.4827C25.0161 26.4827 26.0134 26.0929 26.7488 25.3992C27.4841 24.7054 27.8972 23.7645 27.8972 22.7834C27.8972 21.8023 27.4841 20.8613 26.7488 20.1676C26.0134 19.4738 25.0161 19.0841 23.9762 19.0841C22.9363 19.0841 21.939 19.4738 21.2036 20.1676C20.4683 20.8613 20.0552 21.8023 20.0552 22.7834C20.0552 23.7645 20.4683 24.7054 21.2036 25.3992C21.939 26.0929 22.9363 26.4827 23.9762 26.4827ZM9.86056 13.1652C10.9005 13.1652 11.8978 12.7755 12.6331 12.0817C13.3685 11.388 13.7816 10.4471 13.7816 9.46596C13.7816 8.48485 13.3685 7.54392 12.6331 6.85017C11.8978 6.15642 10.9005 5.76668 9.86056 5.76668C8.82064 5.76668 7.82332 6.15642 7.08798 6.85017C6.35265 7.54392 5.93954 8.48485 5.93954 9.46596C5.93954 10.4471 6.35265 11.388 7.08798 12.0817C7.82332 12.7755 8.82064 13.1652 9.86056 13.1652ZM6.72375 29.4421C7.76366 29.4421 8.76099 29.0523 9.49632 28.3586C10.2317 27.6648 10.6448 26.7239 10.6448 25.7428C10.6448 24.7617 10.2317 23.8208 9.49632 23.127C8.76099 22.4333 7.76366 22.0435 6.72375 22.0435C5.68383 22.0435 4.68651 22.4333 3.95117 23.127C3.21584 23.8208 2.80273 24.7617 2.80273 25.7428C2.80273 26.7239 3.21584 27.6648 3.95117 28.3586C4.68651 29.0523 5.68383 29.4421 6.72375 29.4421ZM27.113 10.2058C28.1529 10.2058 29.1503 9.81607 29.8856 9.12232C30.6209 8.42857 31.034 7.48764 31.034 6.50653C31.034 5.52542 30.6209 4.5845 29.8856 3.89075C29.1503 3.197 28.1529 2.80725 27.113 2.80725C26.0731 2.80725 25.0758 3.197 24.3404 3.89075C23.6051 4.5845 23.192 5.52542 23.192 6.50653C23.192 7.48764 23.6051 8.42857 24.3404 9.12232C25.0758 9.81607 26.0731 10.2058 27.113 10.2058Z" stroke="#A798FF" stroke-width="4" stroke-linecap="round" stroke-linejoin="round"/>
</g>
</svg>
