<svg width="35" height="32" viewBox="0 0 35 32" fill="none" xmlns="http://www.w3.org/2000/svg">
<g opacity="0.6">
<path d="M34.1741 14.4375V10.9233H30.4494V7.40922C30.4464 6.47807 30.0531 5.58586 29.3552 4.92744C28.6573 4.26901 27.7116 3.89788 26.7246 3.8951H22.9999V0.380981H19.2751V3.8951H15.5504V0.380981H11.8256V3.8951H8.10087C7.11391 3.89788 6.16822 4.26901 5.47033 4.92744C4.77244 5.58586 4.37907 6.47807 4.37612 7.40922V10.9233H0.651367V14.4375H4.37612V17.9516H0.651367V21.4657H4.37612V24.9798C4.37907 25.911 4.77244 26.8032 5.47033 27.4616C6.16822 28.12 7.11391 28.4912 8.10087 28.4939H11.8256V32.0081H15.5504V28.4939H19.2751V32.0081H22.9999V28.4939H26.7246C27.7116 28.4912 28.6573 28.12 29.3552 27.4616C30.0531 26.8032 30.4464 25.911 30.4494 24.9798V21.4657H34.1741V17.9516H30.4494V14.4375H34.1741ZM26.7246 24.9798H8.10087V7.40922H26.7246V24.9798Z" fill="#A798FF"/>
<path d="M16.4638 9.10385L16.4151 8.91687H16.2219H13.717H13.5249L13.4754 9.10253L9.73205 23.159L9.64834 23.4734H9.97363H11.8863H12.0792L12.1281 23.2868L12.9433 20.1789H16.8695L17.6633 23.2852L17.7113 23.4734H17.9055H19.8833H20.2068L20.1253 23.1603L16.4638 9.10385ZM21.5911 8.91687H21.3411V9.16687V23.2234V23.4734H21.5911H23.4535H23.7035V23.2234V9.16687V8.91687H23.4535H21.5911ZM16.4976 18.2715H13.321L14.9371 11.7204L16.4976 18.2715Z" fill="#A798FF" stroke="#A798FF" stroke-width="0.5"/>
</g>
</svg>
