<svg width="32" height="30" viewBox="0 0 32 30" fill="none" xmlns="http://www.w3.org/2000/svg">
<path opacity="0.6" d="M13.7716 27.7015H28.7938M25.0382 8.21394L26.916 9.98553M27.8549 3.78496C28.2249 4.13389 28.5183 4.54817 28.7186 5.00413C28.9188 5.4601 29.0219 5.9488 29.0219 6.44235C29.0219 6.93589 28.9188 7.4246 28.7186 7.88056C28.5183 8.33652 28.2249 8.7508 27.8549 9.09974L10.016 25.9299L2.50488 27.7015L4.38266 20.7143C11.3521 14.1057 15.2596 10.4006 22.2291 3.79205C22.9325 3.12517 23.876 2.73221 24.8723 2.69119C25.8685 2.65017 26.8447 2.96407 27.607 3.5706L27.8549 3.78496Z" stroke="#A798FF" stroke-width="4" stroke-linecap="round" stroke-linejoin="round"/>
</svg>
