<svg width="37" height="37" viewBox="0 0 37 37" fill="none" xmlns="http://www.w3.org/2000/svg">
<g opacity="0.6">
<path d="M30.8849 23.3826H22.8359V20.8707H30.8849V23.3826ZM36.2508 33.4299H28.2019V30.9181H36.2508V33.4299ZM33.5678 28.4062H25.5189V25.8944H33.5678V28.4062Z" fill="#A798FF" stroke="#A798FF"/>
<path d="M18.814 23.3825C18.8039 22.3229 18.5017 21.2837 17.9367 20.3656C17.3717 19.4474 16.5631 18.6813 15.5891 18.1416L25.5174 2.03192L23.1967 0.776001L13.0322 17.2612C11.7847 17.0004 10.4874 17.0366 9.25867 17.3663C8.02998 17.6961 6.90919 18.3089 5.99877 19.1488C0.976234 23.684 1.36527 34.2864 1.38405 34.7361C1.39791 35.0604 1.54535 35.3671 1.79544 35.5918C2.04553 35.8166 2.37886 35.942 2.72554 35.9417H22.8358C23.1173 35.9417 23.3918 35.8588 23.6202 35.7047C23.8486 35.5506 24.0194 35.333 24.1084 35.083C24.1975 34.8329 24.2002 34.563 24.1163 34.3113C24.0323 34.0597 23.8659 33.8392 23.6407 33.6811C18.8918 30.3454 18.814 23.4504 18.814 23.3825ZM12.0086 19.611C13.0823 19.6221 14.1101 20.0202 14.8782 20.7227C15.6463 21.4252 16.0955 22.3779 16.1324 23.3825C16.1324 23.4303 16.1351 23.6438 16.1552 23.9716L8.2404 20.676C8.76175 20.2736 9.36338 19.9721 10.0103 19.7893C10.6572 19.6065 11.3365 19.5459 12.0086 19.611ZM16.7307 33.4299C15.6584 32.4077 14.9749 31.0838 14.7855 29.6621H12.1025C12.1986 30.9988 12.6446 32.2928 13.4011 33.4299H10.419C9.86706 31.8 9.5314 30.1128 9.41956 28.4062H6.73659C6.82258 30.1077 7.122 31.7939 7.62868 33.4299H4.05361C4.0952 31.124 4.44264 26.03 6.47231 22.688L16.5777 26.8954C17.0622 29.2559 18.0974 31.4872 19.6095 33.4299H16.7307Z" fill="#A798FF" stroke="#A798FF"/>
</g>
</svg>
